<svg id="Calque_1" data-name="Calque 1" xmlns="http://www.w3.org/2000/svg" xmlns:xlink="http://www.w3.org/1999/xlink" viewBox="0 0 954.13 637.24"><defs><style>.cls-1{fill:none;}.cls-2{clip-path:url(#clip-path);}.cls-3{fill:#fff;}.cls-4{fill:#e20613;}</style><clipPath id="clip-path" transform="translate(-220.43 -131.38)"><rect class="cls-1" width="1400" height="900"/></clipPath></defs><title>Logo</title><g class="cls-2"><path class="cls-3" d="M654.64,278.91c1.06-2.17,2.49-4.44-1.3-5.44-1.64-1.54-1.54-3.08,0-4.62,20.23-6.32,39.25-8.38,58.54,5.35C729.62,286.83,750.35,295,768,308.48c4.92-5.58,3.75-11.94,4.19-18,1.32-18.1,12.15-31,29.75-35.41,12.25-3.09,26.44,4.63,35.12,19.45a74.46,74.46,0,0,0,31,29.16c-2-12.53.27-25.13-6.8-36.75-16.62-27.28-37.62-51.19-56.92-76.42-7.9-10.34-19.31-15.44-29.3-23.77,11.69-2.33,4.9-8.18,1.66-15,6.58,4.28,8.46-3.29,12.23-2.84,7.4.88,17.34-1.21,16.48,12.43-.53,8.33,5.46,14.6,11.34,20.49,29.53,29.6,57.63,60.5,74.6,99.37,7.41,17,12.26,35.12,17.87,52.76,17,53.47,14.69,108.29,6,163-2.7,17-10.57,32.45-21.69,45.5-15.51,18.21-18.43,38.92-15.11,61.46.52,3.54,1.56,7.09,1.54,10.63-.17,32.78-.19,65.46,5.67,98,3.35,18.64-4.55,34.89-14.48,50.35-3.67,5.72-7.91,6.58-13.53,5.24-6-1.43-5-6.42-5.28-10.86-.87-12.29,3.21-24.3,6.38-35.29,9.1-31.55,5-34.51-2.46-62.72-7.75,14.46-6.66,29.43-7.51,43.33-1.43,23.59-14.73,41.77-23.78,61.94-1.42,3.17-4.11,4.85-7.67,3.56-3.21-1.15-3.12-4.13-2.68-6.73a133.15,133.15,0,0,1,3.13-14.42c3.69-12.93,4.47-25.27-3.06-37.54-4.67-7.59-4.21-15.07,6.85-16.82,5.92-.94,6.88-4.7,7.26-9.5.8-10.29,2.07-20.57,2.51-30.87.63-14.86-12-33.21-26.24-34.88-16.12-1.89-32.23-7.63-48.84-2.85-2.46.7-5.32-.35-7.23,2.42-1.67,2.43-.61,8.63-6.45,5.77a10.17,10.17,0,0,1-5.49-12.55c3-9.24,6.62-17.85-1.95-26.42-2-2,2.34-4.11,4.07-5.85,23.34-23.48,43.52-50.32,72.74-67.59,6.51-3.85,10.44-10.5,12.67-18.37,6.84-24.15,16.3-47.08,30.49-68.17,11.64-17.3,10.46-25.28-2-38.29-3.83-4-7.55-8.23-14.74-4.26-6.42,3.55-12.5-.83-18.06-4.36a1.54,1.54,0,0,0-2.58-.49c-8.11-1.79-13.61-6.22-14.18-15-.16-2.49-2-5.81-2.51-5.52-14.63,9-10.78-8.46-16.77-11.6-18.8-9.88-33.18-25.76-50.69-37.38-6.33-4.2-13.84-7.33-18.77-12.79-16.18-17.93-33.43-16.81-52.84-6.12-6.7,3.69-2.28-3.53-3.51-5.4-1-1.47-3.08-1.84-3.88-3.57" transform="translate(-220.43 -131.38)"/><path class="cls-3" d="M654.64,278.91l3.88,3.57-8.89,6.6c-.84-5.24,2.39-7.56,5-10.17" transform="translate(-220.43 -131.38)"/><path class="cls-3" d="M653.34,268.85v4.62c-3.44-.05-6,4.17-10.21,2,1.72-5,6.24-5.37,10.21-6.58" transform="translate(-220.43 -131.38)"/><path d="M817.79,376.26l2.16-1.7c.13.73.28,1.46.42,2.19a8.67,8.67,0,0,1-2.58-.49" transform="translate(-220.43 -131.38)"/><path class="cls-3" d="M820,131.38c6.46.84,12.95,1.48,19.36,2.55a151.72,151.72,0,0,1,38.56,11.93c9,4.16,17.64,9.16,26.21,14.18a159.79,159.79,0,0,1,28.1,21.35c6.26,5.85,12.1,12.16,18,18.42,4,4.31,7.91,8.79,11.67,13.34,5.28,6.42,10.57,12.84,15.54,19.49,8.14,10.92,16.1,22,24,33.06,6.93,9.77,13.56,19.74,20.49,29.51,6.33,8.93,12.67,17.86,19.39,26.5,5.18,6.67,10.72,13.1,16.52,19.24a150,150,0,0,0,16.7,15.69c10.06,7.81,21.06,13.87,34.39,13.91,10.59,0,20-3.48,28.72-9.27,6.81-4.51,12.11-10.51,16.75-17a58.17,58.17,0,0,0,8.47-17.17c1.91-6.41,3.53-12.83,3.63-19.55a78.27,78.27,0,0,0-3.09-22.46,5.26,5.26,0,0,1-.13-3c1.85,4.39,4.14,8.66,5.45,13.21,2.22,7.71,4.72,15.5,5.47,23.42,1,10.52.49,21.15-2.83,31.47a80.6,80.6,0,0,1-12,24,122.88,122.88,0,0,1-11.37,13.26,67.65,67.65,0,0,1-16.68,11.81,58.71,58.71,0,0,1-22.84,6.43c-12.06.92-23.61-1.6-34.56-6.52-4.78-2.15-9-5.44-13.73-7.85-8.24-4.25-14.83-10.63-21.45-16.82a123.82,123.82,0,0,1-17.29-19.4c-3.19-4.59-7.19-8.63-10.23-13.3-5.77-8.88-11.14-18-16.6-27.07-8.27-13.73-16.3-27.6-24.74-41.22-8.88-14.33-17.81-28.65-27.32-42.57-6.66-9.73-14.21-18.86-21.58-28.09-8.14-10.22-17.38-19.39-26.95-28.31a198,198,0,0,0-23.87-18.79,163.31,163.31,0,0,0-44.77-21.63c-1.87-.56-3.71-1.22-5.57-1.83l.21-.88" transform="translate(-220.43 -131.38)"/><path class="cls-3" d="M1088.17,434.56c-14.4,3.67-29,2.24-43.3-2.87-13.88-5-26-12.87-36.82-22.76a163.13,163.13,0,0,1-22.78-26.21c-10.89-15.37-19-32.28-27.14-49.14-6.53-13.47-13-27-19.81-40.32C930.59,278.08,923,262.84,914.57,248a321.38,321.38,0,0,0-31.71-46.67,215.34,215.34,0,0,0-31.8-31.66,157.93,157.93,0,0,0-42-24c-1.2-.46-2.39-.95-3.58-1.43.06-.21.11-.43.16-.65,5.33,1.3,10.69,2.46,16,3.93,22.68,6.3,41.55,19,58.27,35.17a269.49,269.49,0,0,1,31.94,37.49c15.45,21.61,28.53,44.63,40.63,68.23,10,19.6,19.84,39.34,30,58.88a307.23,307.23,0,0,0,15.43,27,187.93,187.93,0,0,0,16.58,21.19,160.25,160.25,0,0,0,17.62,17.34c11.21,9.31,23.65,16.67,38.16,19.58,6,1.2,12.21,1.51,17.9,2.17" transform="translate(-220.43 -131.38)"/><path class="cls-3" d="M1139.22,248.65c1.36,2.81,2.69,5.28,3.79,7.85,3.69,8.62,6.4,17.49,6.64,26.95a62.34,62.34,0,0,1-9.39,35.15,56.6,56.6,0,0,1-24.93,22.11c-13.23,6.08-26.7,6.21-39.91-.22a118.49,118.49,0,0,1-13.66-8.28c4.92,1.66,9.73,3.75,14.77,4.89,14.54,3.31,27.56-.61,39.34-9.26a65.05,65.05,0,0,0,22.53-30.17c5.79-15.32,5.77-30.81,1-46.38-.18-.58-.37-1.15-.52-1.73,0-.13.1-.31.32-.91" transform="translate(-220.43 -131.38)"/><path class="cls-4" d="M327.87,397.93A17.89,17.89,0,1,1,310,380a17.89,17.89,0,0,1,17.89,17.89" transform="translate(-220.43 -131.38)"/><path class="cls-3" d="M337.12,437.2a51.71,51.71,0,0,1-5.21,3.46c-.88.51-1.77,1-2.67,1.45-.43.22-.86.42-1.29.62l-.55.26s-1.17.52-.52.24-.21.08-.35.14l-.76.3-1.35.49q-1.56.54-3.15,1a55.34,55.34,0,0,1-6.11,1.31c-1,.15-.11,0,.07,0l-.84.1-1.49.14c-1.14.09-2.28.14-3.43.16a53.71,53.71,0,0,1-5.53-.23l-1.2-.13c-1.18-.14.7.13-.21,0s-1.79-.3-2.68-.48q-2.49-.51-4.9-1.26c-.8-.25-1.59-.52-2.38-.8-.36-.14-.73-.27-1.09-.42l-.62-.24c-.86-.34.69.31.13.05-1.56-.73-3.1-1.44-4.59-2.28a48.67,48.67,0,0,1-4.18-2.61c-.36-.25-.72-.5-1.07-.76-.16-.12-1.16-.89-.54-.4l-.52-.42-1.13-1q-1.86-1.61-3.56-3.38c-.56-.59-1.11-1.19-1.65-1.81s-1.51-1.39-1.67-2c0,.07.72,1,.19.23l-.3-.39c-.23-.31-.45-.62-.67-.94-.5-.71-1-1.44-1.46-2.18-.9-1.44-1.74-2.93-2.5-4.45-.37-.74-.71-1.5-1-2.25s.38,1-.08-.18l-.48-1.25c-.6-1.62-1.13-3.27-1.57-4.95s-.77-3.3-1-5a2.85,2.85,0,0,1-.1-.68c0,.06.15,1.26,0,.31,0-.4-.09-.8-.13-1.2-.09-.93-.16-1.85-.2-2.78a51.77,51.77,0,0,1,.05-5.43c0-.81.11-1.62.2-2.42.05-.4.35-1.76,0-.38.1-.44.13-.9.21-1.35a50.71,50.71,0,0,1,2.73-9.89,4.2,4.2,0,0,1,.43-1.08c-.46.52-.32.75-.11.28l.27-.6c.36-.81.75-1.6,1.16-2.38a47.87,47.87,0,0,1,2.48-4.27c.44-.69.91-1.37,1.39-2l.68-.93c.31-.43,0-.35-.19.23a2.82,2.82,0,0,1,.51-.64q1.55-1.91,3.27-3.66a50.49,50.49,0,0,1,3.72-3.44l.89-.72c1-.79-.56.4.15-.13s1.41-1,2.14-1.52q2.12-1.42,4.36-2.64c.73-.39,1.46-.76,2.21-1.12l1.05-.49.45-.2c1.07-.48-1.06.42,0,0a53.21,53.21,0,0,1,9.65-2.86l1.35-.24c.24,0,1.45-.25.69-.11s.49-.06.7-.08l1.55-.14a52.38,52.38,0,0,1,5.74-.13q1.48,0,3,.18a11.67,11.67,0,0,1,1.68.18c-.05,0-.88-.13-.29,0l1,.16a51.44,51.44,0,0,1,6.25,1.44c.91.28,1.82.58,2.72.9l1.33.5.75.31c-1-.41-.1,0,.11.05a52.14,52.14,0,0,1,5.55,2.89,57.26,57.26,0,0,1,5,3.4c2.08,1.6,5.68.39,6.84-1.79,1.4-2.65.43-5.13-1.8-6.84a56.09,56.09,0,1,0-5.86,93.43,53.39,53.39,0,0,0,5.39-3.56c2.08-1.57,3.37-4.4,1.79-6.84-1.33-2.07-4.6-3.48-6.84-1.8" transform="translate(-220.43 -131.38)"/><path class="cls-3" d="M345.89,449.7a67.14,67.14,0,0,1-14,8.1c1.1-.47-.79.3-1.09.42-.64.24-1.28.48-1.92.7-1.3.45-2.62.87-3.94,1.24a73.22,73.22,0,0,1-8.17,1.73c-1.35.21.71-.07-.14,0l-1.05.12c-.7.08-1.41.14-2.12.2-1.43.11-2.86.17-4.3.19a68.38,68.38,0,0,1-7.15-.29L300.3,462a4.17,4.17,0,0,1-.69-.08c1.15.43.43.05,0,0-1.12-.17-2.24-.37-3.36-.59a67.29,67.29,0,0,1-6.53-1.69c-1.06-.33-2.12-.69-3.17-1.08l-1.4-.53-.77-.31c-1.09-.43,1,.46,0,0-2-.9-4-1.86-5.93-2.93s-3.78-2.23-5.58-3.48c-.45-.31-.89-.63-1.33-1l-.53-.39c-.3-.22-1.15-.61,0,0a15.64,15.64,0,0,1-2.54-2.07,70.18,70.18,0,0,1-9-9.44c-.55-.7.12.19.18.23a3.7,3.7,0,0,1-.59-.79c-.29-.39-.58-.79-.86-1.19-.66-.94-1.3-1.9-1.91-2.87a64.89,64.89,0,0,1-3.24-5.74c-.47-.94-.92-1.89-1.34-2.85a3.64,3.64,0,0,1-.33-.76c.14.89.28.67.12.28-.25-.62-.5-1.24-.73-1.86a66.49,66.49,0,0,1-3.42-13c0-.22-.07-.45-.11-.68-.18-1.19.14,1.18,0,0l-.18-1.54c-.12-1.21-.21-2.42-.27-3.64q-.15-3.51,0-7c.06-1,.14-2.07.25-3.11.06-.57.15-1.14.2-1.71-.12,1.32-.06.47,0,.14s.12-.79.19-1.19a65.66,65.66,0,0,1,3.55-13c.18-.46.38-.92.55-1.39.26-.69-.51,1.15-.05.12l.27-.6c.49-1.11,1-2.21,1.57-3.29a65.8,65.8,0,0,1,3.29-5.7c.53-.83,1.09-1.65,1.65-2.45.32-.45.64-.89,1-1.33.06-.08.67-1,.2-.27s.33-.41.42-.53c1.37-1.7,2.82-3.34,4.34-4.9s3-3,4.67-4.35c.37-.32.75-.63,1.13-.94l.77-.61c.4-.32.14-.39-.23.18a6.14,6.14,0,0,1,1.31-1c.49-.35,1-.7,1.48-1,1.81-1.24,3.68-2.38,5.61-3.44.91-.5,1.84-1,2.78-1.44l1.5-.71.6-.27c.14-.06,1.42-.59.63-.27l.94-.38,1.56-.59q1.65-.6,3.33-1.11a67.42,67.42,0,0,1,6.55-1.64c1.07-.2,2.13-.38,3.2-.54s-.89.1-.14,0l.86-.1,1.89-.19a68.1,68.1,0,0,1,7.28-.23c1.37,0,2.73.1,4.08.22.71.06,1.42.13,2.12.21l.85.1c-1.19-.15.08,0,.34.06a64.87,64.87,0,0,1,8.16,1.79c1.33.37,2.64.79,3.93,1.25.65.23,1.29.47,1.93.72l.76.31c1.09.43-.66-.31.32.12a72.67,72.67,0,0,1,7.25,3.7,67.2,67.2,0,0,1,6.71,4.51c2.09,1.59,5.69.4,6.84-1.79,1.4-2.64.44-5.15-1.79-6.84A71.67,71.67,0,1,0,344,462.9a69.3,69.3,0,0,0,6.91-4.56c2.08-1.57,3.37-4.4,1.79-6.85-1.33-2.06-4.6-3.47-6.84-1.79" transform="translate(-220.43 -131.38)"/><path class="cls-3" d="M354.94,463.11a84.3,84.3,0,0,1-8.49,5.5c-1.42.8-2.85,1.55-4.32,2.27-.73.36-1.47.71-2.21,1l-1.12.5c-.52.22-.5.22.07,0l-.76.31a83.58,83.58,0,0,1-9.77,3.27q-2.41.63-4.87,1.13c-.82.17-1.64.32-2.47.47l-1.25.2c-.22,0-2,.28-.76.12a85.63,85.63,0,0,1-19.4.23,9.2,9.2,0,0,1-2-.24c1.13.44.43.06,0,0l-1-.16q-2.19-.35-4.35-.81a81.21,81.21,0,0,1-8.13-2.19c-1.17-.38-2.32-.78-3.47-1.21l-1.86-.72a5.38,5.38,0,0,1-.92-.38c.68.29.77.33.27.11l-.61-.26a81.9,81.9,0,0,1-7.37-3.71c-2.39-1.35-4.7-2.82-6.94-4.39-.54-.38-1.07-.77-1.6-1.16l-.78-.59c-.93-.69.88.7,0,0-1.11-.88-2.2-1.78-3.28-2.71-2.05-1.79-4-3.68-5.89-5.66-.9-1-1.77-1.93-2.62-2.92-.43-.5-.85-1-1.26-1.51l-.62-.76-.41-.52q-.5-.63.18.24a17.19,17.19,0,0,1-2.32-3.18q-1.22-1.75-2.34-3.57a81.54,81.54,0,0,1-4-7.21c-.53-1.09-1-2.19-1.52-3.3-.18-.4-.72-1,0,0a5,5,0,0,1-.38-.92c-.29-.72-.57-1.45-.84-2.18a82.21,82.21,0,0,1-2.51-8,84,84,0,0,1-1.69-8.32,5.13,5.13,0,0,1-.15-1c-.08,1.28.05.39,0,0-.08-.69-.15-1.37-.22-2.06-.14-1.5-.25-3-.31-4.51a85.3,85.3,0,0,1,.09-8.76q.14-2.09.36-4.14c0-.35.09-.69.13-1,.14-1.2-.18,1.16,0,0,.12-.79.24-1.58.37-2.37A82.53,82.53,0,0,1,236,371.72l.38-.93c.15-.38.24-1.24,0,0a9.2,9.2,0,0,1,.81-1.82c.54-1.2,1.12-2.39,1.73-3.57a81.23,81.23,0,0,1,4.12-7.12c.72-1.1,1.46-2.19,2.22-3.25.38-.54.77-1.06,1.17-1.59.24-.32.54-1.12,0,0a6.6,6.6,0,0,1,.81-1,84.43,84.43,0,0,1,11.44-11.66l1.52-1.25a5,5,0,0,1,.77-.61c-1.09.54-.3.24,0,0,1.13-.86,2.29-1.68,3.47-2.48,2.27-1.53,4.62-3,7-4.26,1.16-.63,2.34-1.23,3.53-1.8l1.8-.84.91-.4.61-.26c-.69.28-.78.32-.28.11a85.6,85.6,0,0,1,15.74-4.71c1.34-.26,2.69-.47,4-.68s-1.17.14,0,0l1-.12c.8-.09,1.61-.17,2.41-.24a84.66,84.66,0,0,1,9.15-.26c1.72,0,3.43.14,5.15.29.84.07,1.69.16,2.53.26.19,0,1.6.21.36,0l1.66.25A81.73,81.73,0,0,1,330.33,326q2.37.71,4.7,1.54c.78.27,1.55.56,2.31.86l1.14.46q.78.33-.06,0l.74.33a83.69,83.69,0,0,1,9,4.66,85.66,85.66,0,0,1,8,5.45c2.09,1.6,5.69.39,6.84-1.79,1.4-2.65.44-5.14-1.79-6.84A86.09,86.09,0,0,0,322.2,314a87.39,87.39,0,0,0-70.6,19.64,86.93,86.93,0,0,0-21.49,27,88.78,88.78,0,0,0-9.52,35,87.08,87.08,0,0,0,5.27,35.5,89.32,89.32,0,0,0,18.83,30.18,86.78,86.78,0,0,0,28.14,19.77,87.85,87.85,0,0,0,78.67-3.85,84.17,84.17,0,0,0,8.48-5.5c2.11-1.54,3.37-4.4,1.8-6.84-1.34-2.08-4.59-3.45-6.84-1.79" transform="translate(-220.43 -131.38)"/><path class="cls-3" d="M423.74,448.9H401.23V436.05a31.37,31.37,0,0,1-8.72,10.81,17.87,17.87,0,0,1-10.85,3.63q-12.41,0-19-11.51t-6.6-33.4q0-21.25,6.78-32.87t19-11.6a17.43,17.43,0,0,1,10.5,3.45q4.74,3.46,8.9,10.72V362h22.51Zm-22.51-44.83q0-11.86-2.79-17.62t-8.63-5.76q-5.24,0-7.58,5.53t-2.35,18q0,12.4,2.62,18.56t7.93,6.16q5.65,0,8.23-5.94t2.57-19" transform="translate(-220.43 -131.38)"/><path class="cls-3" d="M441.72,448.9V362H464v15.42q2.93-8.51,7.8-12.71a17.77,17.77,0,0,1,11.78-4.3v22.86H482q-9.48,0-12.89,4.47t-3.41,20.33V448.9Z" transform="translate(-220.43 -131.38)"/><path class="cls-3" d="M493.63,448.9V362h22.15v13.47A32.82,32.82,0,0,1,526,364.65a23.43,23.43,0,0,1,12.67-3.54q7.08,0,11.51,3.63t5.94,10.72a37.57,37.57,0,0,1,10.63-10.85,22.27,22.27,0,0,1,12-3.5q9.48,0,13.24,6.55t3.77,27V448.9H572.21V396.28q0-7.35-1.59-10.19t-5.5-2.83q-4.7,0-6.68,3.1c-1.33,2.06-2,5.73-2,11V448.9H533.05V396.28c0-4.79-.54-8.18-1.63-10.19a5.72,5.72,0,0,0-5.45-3q-4.79,0-6.87,3.28t-2.08,11V448.9Z" transform="translate(-220.43 -131.38)"/><path class="cls-3" d="M631.48,411.87v.71q0,9.75,3.45,15a11.09,11.09,0,0,0,9.83,5.23,10.32,10.32,0,0,0,7-2.48,17.3,17.3,0,0,0,4.65-7.53H677q-2.84,13-11.74,20.37t-21.83,7.35q-16.22,0-25.78-12.13t-9.57-32.78q0-20.91,9.57-33t25.78-12.14q17.17,0,25.95,12t8.77,35.35v4.16Zm25.6-13.82q-.27-9.48-3.41-14t-9.44-4.56a10.79,10.79,0,0,0-9.48,4.78q-3.27,4.78-3.27,13.91Z" transform="translate(-220.43 -131.38)"/><path class="cls-3" d="M730.61,448.9V396.28q0-7.44-1.77-10.23c-1.19-1.86-3.19-2.79-6-2.79q-4.6,0-6.64,3.27t-2,10.81V448.9h-24V362h22.33v13.47A33.38,33.38,0,0,1,723,364.65a25.39,25.39,0,0,1,13.34-3.54q10.18,0,14.17,5.76t4,22.68V448.9Z" transform="translate(-220.43 -131.38)"/><path class="cls-3" d="M525.22,521.12h-5.75l-18.25-24.78h-2.84v24.78h-4.72v-52h9.55q8.44,0,12.65,3.51t4.21,10.65q0,6.07-3.6,9.55t-9.92,3.48Zm-26.84-47.85v19.2h4.76q6.6,0,9.21-2.11t2.61-7.19c0-3.57-.9-6.12-2.7-7.63s-4.84-2.27-9.12-2.27Z" transform="translate(-220.43 -131.38)"/><path class="cls-3" d="M539.47,521.12l22.83-54,21.87,54H579l-6.64-17.61H551.15l-6.88,17.61Zm13.28-21.66h18.1L562,476.85Z" transform="translate(-220.43 -131.38)"/><path class="cls-3" d="M604.53,521.12v-52h8.09q10.83,0,15.37,1.06a19.47,19.47,0,0,1,7.81,3.66,21.85,21.85,0,0,1,6.6,8.87,35,35,0,0,1,0,24.87,20.81,20.81,0,0,1-6.53,8.72,21.08,21.08,0,0,1-7.7,3.69q-4.33,1.1-13.95,1.1h-9.69Zm4.72-4.08h6.64q8.05,0,11.43-.91a13.33,13.33,0,0,0,5.71-3.07,19.43,19.43,0,0,0,4.94-7.6,33.25,33.25,0,0,0,0-20.87,18.19,18.19,0,0,0-5-7.45,14.06,14.06,0,0,0-6.07-3.16q-3.58-.93-12.53-.93h-5.11Z" transform="translate(-220.43 -131.38)"/><rect class="cls-3" x="449.29" y="337.77" width="4.72" height="51.97"/><path class="cls-3" d="M755.12,495.24a26.47,26.47,0,0,1-2.1,10.45,27,27,0,0,1-6,8.82,27.73,27.73,0,0,1-9.05,6,28.82,28.82,0,0,1-21.3,0,28,28,0,0,1-15.06-14.8,26.59,26.59,0,0,1-2.08-10.42,27,27,0,0,1,2.08-10.53,27.31,27.31,0,0,1,6.06-8.89,26.4,26.4,0,0,1,8.91-5.86,30.06,30.06,0,0,1,21.51,0,26.93,26.93,0,0,1,8.93,5.84,27.31,27.31,0,0,1,6.06,8.89,26.84,26.84,0,0,1,2.08,10.53m-27.85,23a22.61,22.61,0,0,0,16.16-6.68,23.26,23.26,0,0,0,0-32.73,22.26,22.26,0,0,0-7.37-5,23,23,0,0,0-8.79-1.7,22.45,22.45,0,0,0-8.7,1.7,23.19,23.19,0,0,0-7.39,5,23.89,23.89,0,0,0-5,7.51,23.24,23.24,0,0,0,5,25.22,22.25,22.25,0,0,0,7.31,5,22.56,22.56,0,0,0,8.78,1.69" transform="translate(-220.43 -131.38)"/></g></svg>